<svg xmlns="http://www.w3.org/2000/svg" xmlns:xlink="http://www.w3.org/1999/xlink" viewBox="0 0 24.09 55.04">
<defs>
<style>
use {display: none;}
use:target {display: inline;}
</style>
<path id="v" fill="#CE6667" d="M24.09 34.76c-.04 4.53-3.94 7.76-6.67 7.67-3.69-.12-7.65-4.15-5.75-5.58 1.67-1.25 1.99 4.11 6.88 2.84 2.62-.67 3.4-5.03 2.56-6.88-1.37-3-4.32-3.38-7.07-3.38-2.74 0-6-1.12-6.25 3.38s-.61 17.14-.7 18.29c-.17 2-2.67 5.33-6 3.33-1.78-1.06-1.17-3.92.33-4.33 2.29-.64 2.12-1.79 2.37-3.29s.6-11.57.75-13.75c.17-2.46 1.26-4.48 2.83-5.54-1.57-1.06-2.66-3.08-2.83-5.53-.15-2.18-.5-12.25-.75-13.75s-.08-2.65-2.37-3.29C-.08 4.53-.69 1.68 1.09.62c3.33-2 5.83 1.33 6 3.33.09 1.15.45 13.79.7 18.29.25 4.5 3.51 3.38 6.25 3.38 2.75 0 5.7-.39 7.07-3.38.84-1.85.06-6.21-2.56-6.88-4.89-1.27-5.21 4.09-6.88 2.84-1.9-1.43 2.06-5.46 5.75-5.58 2.73-.09 6.63 3.14 6.67 7.66.02 3.51-2.98 6.18-4.39 7.25 1.41 1.06 4.41 3.72 4.39 7.23z"/>
</defs>
<use id="r" xlink:href="#v"/>
<use id="l" xlink:href="#v" transform="matrix(-1 0 0 1 24.09 0)"/>
</svg>